<svg width="70" height="72" viewBox="0 0 70 72" fill="none" xmlns="http://www.w3.org/2000/svg">
<path id="&#226;&#134;&#146;" d="M51.856 33.12H2.032C1.312 33.12 0.880005 32.688 0.880005 31.968C0.880005 31.248 1.312 30.816 2.032 30.816H52.288C53.728 30.816 54.016 30.096 53.296 29.232L32.992 5.04C30.544 2.16 31.264 0 34.72 0H39.04C41.056 0 41.92 0.720001 43.936 3.02401L67.84 31.536C69.424 33.408 70 34.56 70 35.568C70 36.576 69.424 37.728 67.84 39.6L43.936 68.112C41.92 70.416 41.056 71.136 39.04 71.136H34.72C31.264 71.136 30.544 68.976 32.992 66.096L53.296 41.904C54.016 41.04 53.728 40.32 52.288 40.32H2.032C1.312 40.32 0.880005 39.888 0.880005 39.168C0.880005 38.448 1.312 38.016 2.032 38.016H51.856C56.464 38.016 57.616 40.176 55.312 43.056L34.864 67.392C34.144 68.112 34.288 68.688 35.152 68.688H39.04C39.904 68.688 40.624 68.544 41.632 67.248L66.688 37.296C67.264 36.576 67.552 36.144 67.552 35.568C67.552 34.992 67.264 34.56 66.688 33.84L41.632 3.888C40.624 2.592 39.904 2.44801 39.04 2.44801H35.152C34.288 2.44801 34.144 3.024 34.864 3.744L55.312 28.08C57.616 30.96 56.464 33.12 51.856 33.12Z" fill="#F86838"/>
</svg>
